<?xml version="1.0" encoding="iso-8859-1"?>
<!-- Generator: Adobe Illustrator 19.0.0, SVG Export Plug-In . SVG Version: 6.00 Build 0)  -->
<svg version="1.1" id="Layer_1" xmlns="http://www.w3.org/2000/svg" xmlns:xlink="http://www.w3.org/1999/xlink" x="0px" y="0px"
	 viewBox="0 0 512 512" style="enable-background:new 0 0 512 512;" xml:space="preserve">
<g>
	<g>
		<path fill="#fff" d="M454.809,108.936H392.17V84.426C392.17,37.873,354.296,0,307.745,0c-8.511,0-16.918,1.267-24.989,3.765
			c-4.311,1.334-6.724,5.91-5.389,10.22s5.912,6.724,10.22,5.389c6.505-2.013,13.287-3.034,20.158-3.034
			c37.542,0,68.085,30.544,68.085,68.085v24.511h-87.149V84.426C288.681,37.873,250.808,0,204.255,0
			c-46.553,0-84.426,37.873-84.426,84.426v24.511H57.192c-4.512,0-8.17,3.658-8.17,8.17V503.83c0,4.512,3.658,8.17,8.17,8.17
			h397.617c0.291,0,0.577-0.016,0.859-0.046c0.029-0.003,0.059-0.01,0.088-0.013c0.256-0.029,0.509-0.069,0.756-0.122
			c0.059-0.012,0.115-0.031,0.174-0.045c0.216-0.051,0.43-0.107,0.639-0.174c0.085-0.027,0.168-0.062,0.253-0.093
			c0.178-0.064,0.354-0.13,0.526-0.206c0.102-0.045,0.202-0.096,0.302-0.145c0.149-0.073,0.296-0.148,0.44-0.23
			c0.108-0.061,0.214-0.127,0.319-0.194c0.133-0.084,0.263-0.17,0.389-0.261c0.103-0.074,0.205-0.149,0.305-0.228
			c0.13-0.102,0.255-0.21,0.378-0.32c0.087-0.077,0.174-0.154,0.259-0.235c0.15-0.146,0.292-0.3,0.431-0.458
			c0.042-0.048,0.089-0.089,0.131-0.138c0.153-0.186,0.271-0.349,0.389-0.512c0.04-0.057,0.086-0.11,0.124-0.167
			c0.139-0.206,0.268-0.419,0.389-0.637c0.01-0.017,0.022-0.034,0.032-0.052c0.128-0.233,0.243-0.474,0.346-0.721
			c0.05-0.12,0.088-0.242,0.133-0.363c0.048-0.13,0.1-0.256,0.142-0.389c0.078-0.255,0.145-0.512,0.198-0.771
			c0.005-0.028,0.009-0.058,0.014-0.087c0.046-0.236,0.084-0.475,0.109-0.714c0.008-0.071,0.007-0.144,0.012-0.215
			c0.015-0.198,0.029-0.398,0.031-0.596c0.001-0.039,0.001-386.763,0.001-386.763C462.979,112.594,459.321,108.936,454.809,108.936z
			 M136.17,84.426c0-37.542,30.544-68.085,68.085-68.085c37.542,0,68.085,30.544,68.085,68.085v24.511H239.66V84.426
			c0-8.812,1.675-17.41,4.977-25.555c1.696-4.181-0.319-8.946-4.501-10.642c-4.182-1.696-8.946,0.32-10.642,4.501
			c-4.097,10.105-6.174,20.769-6.174,31.696v24.511H136.17V84.426z M343.149,495.66H65.362V125.277h277.787V495.66z M373.706,495.66
			l29.358-24.723l29.358,24.723H373.706z M446.638,486.268l-35.404-29.814V149.787c0-4.512-3.658-8.17-8.17-8.17
			s-8.17,3.658-8.17,8.17v306.667l-35.404,29.814V125.277h87.149V486.268z"/>
	</g>
</g>
<g>
	<g>
		<path  fill="#fff" d="M248.829,215.149c-17.267,0-33.466,7.562-44.573,20.316c-11.107-12.753-27.306-20.316-44.573-20.316
			c-32.613,0-59.145,26.533-59.145,59.145c0,75.391,95.743,128.286,99.818,130.501c1.217,0.661,2.559,0.991,3.901,0.991
			c1.342,0,2.684-0.33,3.901-0.991c4.075-2.215,99.818-55.111,99.818-130.501C307.975,241.681,281.442,215.149,248.829,215.149z
			 M204.255,388.168c-17.454-10.486-87.379-56.121-87.379-113.874c0-23.603,19.202-42.804,42.804-42.804
			c15.531,0,29.874,8.465,37.428,22.094c1.44,2.597,4.175,4.209,7.146,4.209s5.706-1.611,7.146-4.209
			c7.555-13.628,21.897-22.094,37.428-22.094c23.603,0,42.804,19.202,42.804,42.804
			C291.634,332.048,221.709,377.682,204.255,388.168z"/>
	</g>
</g>

</svg>
